<mxfile host="app.diagrams.net" agent="Mozilla/5.0 (Windows NT 10.0; Win64; x64; rv:130.0) Gecko/20100101 Firefox/130.0" version="24.7.17">
  <diagram name="1 oldal" id="ZYxnsCM2_cjTRUYWAaXu">
    <mxGraphModel dx="1725" dy="782" grid="1" gridSize="10" guides="1" tooltips="1" connect="1" arrows="1" fold="1" page="1" pageScale="1" pageWidth="291" pageHeight="413" math="0" shadow="0">
      <root>
        <mxCell id="0" />
        <mxCell id="1" parent="0" />
        <mxCell id="Ieq8klNrTCmySYKByaQ4-1" value="Tanszék" style="rounded=0;whiteSpace=wrap;html=1;fillColor=#dae8fc;strokeColor=#6c8ebf;" vertex="1" parent="1">
          <mxGeometry x="-170" y="130" width="160" height="70" as="geometry" />
        </mxCell>
        <mxCell id="Ieq8klNrTCmySYKByaQ4-2" value="Oktató" style="rounded=0;whiteSpace=wrap;html=1;fillColor=#dae8fc;strokeColor=#6c8ebf;" vertex="1" parent="1">
          <mxGeometry x="300" y="130" width="160" height="70" as="geometry" />
        </mxCell>
        <mxCell id="Ieq8klNrTCmySYKByaQ4-3" value="T-0" style="rhombus;whiteSpace=wrap;html=1;fillColor=#f8cecc;strokeColor=#b85450;" vertex="1" parent="1">
          <mxGeometry x="120" y="125" width="80" height="80" as="geometry" />
        </mxCell>
        <mxCell id="Ieq8klNrTCmySYKByaQ4-6" value="&lt;u&gt;kód&lt;/u&gt;" style="ellipse;whiteSpace=wrap;html=1;fillColor=#ffe6cc;strokeColor=#d79b00;" vertex="1" parent="1">
          <mxGeometry x="-280" y="260" width="90" height="60" as="geometry" />
        </mxCell>
        <mxCell id="Ieq8klNrTCmySYKByaQ4-7" value="név" style="ellipse;whiteSpace=wrap;html=1;fillColor=#ffe6cc;strokeColor=#d79b00;" vertex="1" parent="1">
          <mxGeometry x="-160" y="260" width="90" height="60" as="geometry" />
        </mxCell>
        <mxCell id="Ieq8klNrTCmySYKByaQ4-8" value="kar" style="ellipse;whiteSpace=wrap;html=1;fillColor=#ffe6cc;strokeColor=#d79b00;" vertex="1" parent="1">
          <mxGeometry x="-60" y="260" width="90" height="60" as="geometry" />
        </mxCell>
        <mxCell id="Ieq8klNrTCmySYKByaQ4-10" value="&lt;u&gt;neptunkód&lt;/u&gt;" style="ellipse;whiteSpace=wrap;html=1;fillColor=#ffe6cc;strokeColor=#d79b00;" vertex="1" parent="1">
          <mxGeometry x="220" y="260" width="90" height="60" as="geometry" />
        </mxCell>
        <mxCell id="Ieq8klNrTCmySYKByaQ4-11" value="név" style="ellipse;whiteSpace=wrap;html=1;fillColor=#ffe6cc;strokeColor=#d79b00;" vertex="1" parent="1">
          <mxGeometry x="335" y="260" width="90" height="60" as="geometry" />
        </mxCell>
        <mxCell id="Ieq8klNrTCmySYKByaQ4-12" value="beosztás" style="ellipse;whiteSpace=wrap;html=1;fillColor=#ffe6cc;strokeColor=#d79b00;" vertex="1" parent="1">
          <mxGeometry x="450" y="260" width="90" height="60" as="geometry" />
        </mxCell>
        <mxCell id="Ieq8klNrTCmySYKByaQ4-14" value="" style="endArrow=none;html=1;rounded=0;entryX=0;entryY=1;entryDx=0;entryDy=0;" edge="1" parent="1" target="Ieq8klNrTCmySYKByaQ4-1">
          <mxGeometry width="50" height="50" relative="1" as="geometry">
            <mxPoint x="-230" y="260" as="sourcePoint" />
            <mxPoint x="-180" y="210" as="targetPoint" />
          </mxGeometry>
        </mxCell>
        <mxCell id="Ieq8klNrTCmySYKByaQ4-16" value="" style="endArrow=none;html=1;rounded=0;entryX=0.75;entryY=1;entryDx=0;entryDy=0;exitX=0.333;exitY=0;exitDx=0;exitDy=0;exitPerimeter=0;" edge="1" parent="1" source="Ieq8klNrTCmySYKByaQ4-8" target="Ieq8klNrTCmySYKByaQ4-1">
          <mxGeometry width="50" height="50" relative="1" as="geometry">
            <mxPoint x="-40" y="260" as="sourcePoint" />
            <mxPoint x="10" y="210" as="targetPoint" />
          </mxGeometry>
        </mxCell>
        <mxCell id="Ieq8klNrTCmySYKByaQ4-21" value="" style="endArrow=classic;html=1;rounded=0;exitX=0;exitY=0.5;exitDx=0;exitDy=0;entryX=1;entryY=0.5;entryDx=0;entryDy=0;endFill=1;" edge="1" parent="1" source="Ieq8klNrTCmySYKByaQ4-3" target="Ieq8klNrTCmySYKByaQ4-1">
          <mxGeometry width="50" height="50" relative="1" as="geometry">
            <mxPoint x="70" y="175" as="sourcePoint" />
            <mxPoint x="120" y="125" as="targetPoint" />
          </mxGeometry>
        </mxCell>
        <mxCell id="Ieq8klNrTCmySYKByaQ4-22" value="" style="endArrow=doubleBlock;html=1;rounded=0;entryX=0;entryY=0.5;entryDx=0;entryDy=0;exitX=1;exitY=0.5;exitDx=0;exitDy=0;endFill=1;" edge="1" parent="1" source="Ieq8klNrTCmySYKByaQ4-3" target="Ieq8klNrTCmySYKByaQ4-2">
          <mxGeometry width="50" height="50" relative="1" as="geometry">
            <mxPoint x="190" y="175" as="sourcePoint" />
            <mxPoint x="240" y="125" as="targetPoint" />
          </mxGeometry>
        </mxCell>
        <mxCell id="Ieq8klNrTCmySYKByaQ4-23" value="O-T" style="rhombus;whiteSpace=wrap;html=1;fillColor=#f8cecc;strokeColor=#b85450;" vertex="1" parent="1">
          <mxGeometry x="550" y="125" width="80" height="80" as="geometry" />
        </mxCell>
        <mxCell id="Ieq8klNrTCmySYKByaQ4-24" value="Tantárgy" style="rounded=0;whiteSpace=wrap;html=1;fillColor=#dae8fc;strokeColor=#6c8ebf;" vertex="1" parent="1">
          <mxGeometry x="740" y="130" width="160" height="70" as="geometry" />
        </mxCell>
        <mxCell id="Ieq8klNrTCmySYKByaQ4-26" value="" style="endArrow=none;html=1;rounded=0;" edge="1" parent="1">
          <mxGeometry width="50" height="50" relative="1" as="geometry">
            <mxPoint x="-110" y="260" as="sourcePoint" />
            <mxPoint x="-95" y="200" as="targetPoint" />
          </mxGeometry>
        </mxCell>
        <mxCell id="Ieq8klNrTCmySYKByaQ4-27" value="" style="endArrow=none;html=1;rounded=0;" edge="1" parent="1">
          <mxGeometry width="50" height="50" relative="1" as="geometry">
            <mxPoint x="160" y="125" as="sourcePoint" />
            <mxPoint x="160" y="50" as="targetPoint" />
          </mxGeometry>
        </mxCell>
        <mxCell id="Ieq8klNrTCmySYKByaQ4-28" value="" style="endArrow=doubleBlock;html=1;rounded=0;entryX=0;entryY=0.5;entryDx=0;entryDy=0;exitX=1;exitY=0.5;exitDx=0;exitDy=0;endFill=1;" edge="1" parent="1" source="Ieq8klNrTCmySYKByaQ4-23" target="Ieq8klNrTCmySYKByaQ4-24">
          <mxGeometry width="50" height="50" relative="1" as="geometry">
            <mxPoint x="630" y="170" as="sourcePoint" />
            <mxPoint x="680" y="120" as="targetPoint" />
          </mxGeometry>
        </mxCell>
        <mxCell id="Ieq8klNrTCmySYKByaQ4-29" value="" style="endArrow=doubleBlock;html=1;rounded=0;exitX=0;exitY=0.5;exitDx=0;exitDy=0;entryX=1;entryY=0.5;entryDx=0;entryDy=0;endFill=1;" edge="1" parent="1" source="Ieq8klNrTCmySYKByaQ4-23" target="Ieq8klNrTCmySYKByaQ4-2">
          <mxGeometry width="50" height="50" relative="1" as="geometry">
            <mxPoint x="425" y="207" as="sourcePoint" />
            <mxPoint x="475" y="157" as="targetPoint" />
          </mxGeometry>
        </mxCell>
        <mxCell id="Ieq8klNrTCmySYKByaQ4-30" value="" style="endArrow=none;html=1;rounded=0;entryX=0.106;entryY=0.986;entryDx=0;entryDy=0;entryPerimeter=0;" edge="1" parent="1" target="Ieq8klNrTCmySYKByaQ4-2">
          <mxGeometry width="50" height="50" relative="1" as="geometry">
            <mxPoint x="270" y="260" as="sourcePoint" />
            <mxPoint x="320" y="210" as="targetPoint" />
          </mxGeometry>
        </mxCell>
        <mxCell id="Ieq8klNrTCmySYKByaQ4-31" value="" style="endArrow=none;html=1;rounded=0;entryX=0.5;entryY=1;entryDx=0;entryDy=0;exitX=0.5;exitY=0;exitDx=0;exitDy=0;" edge="1" parent="1" source="Ieq8klNrTCmySYKByaQ4-11" target="Ieq8klNrTCmySYKByaQ4-2">
          <mxGeometry width="50" height="50" relative="1" as="geometry">
            <mxPoint x="375" y="260" as="sourcePoint" />
            <mxPoint x="425" y="210" as="targetPoint" />
          </mxGeometry>
        </mxCell>
        <mxCell id="Ieq8klNrTCmySYKByaQ4-32" value="" style="endArrow=none;html=1;rounded=0;exitX=0.356;exitY=-0.033;exitDx=0;exitDy=0;exitPerimeter=0;" edge="1" parent="1" source="Ieq8klNrTCmySYKByaQ4-12">
          <mxGeometry width="50" height="50" relative="1" as="geometry">
            <mxPoint x="400" y="250" as="sourcePoint" />
            <mxPoint x="450" y="200" as="targetPoint" />
          </mxGeometry>
        </mxCell>
        <mxCell id="Ieq8klNrTCmySYKByaQ4-33" value="&lt;u&gt;neptunkód&lt;/u&gt;" style="ellipse;whiteSpace=wrap;html=1;fillColor=#ffe6cc;strokeColor=#d79b00;" vertex="1" parent="1">
          <mxGeometry x="670" y="260" width="90" height="60" as="geometry" />
        </mxCell>
        <mxCell id="Ieq8klNrTCmySYKByaQ4-34" value="név" style="ellipse;whiteSpace=wrap;html=1;fillColor=#ffe6cc;strokeColor=#d79b00;" vertex="1" parent="1">
          <mxGeometry x="790" y="260" width="90" height="60" as="geometry" />
        </mxCell>
        <mxCell id="Ieq8klNrTCmySYKByaQ4-35" value="lezárás módja" style="ellipse;whiteSpace=wrap;html=1;fillColor=#ffe6cc;strokeColor=#d79b00;" vertex="1" parent="1">
          <mxGeometry x="1010" y="260" width="90" height="60" as="geometry" />
        </mxCell>
        <mxCell id="Ieq8klNrTCmySYKByaQ4-36" value="kredit" style="ellipse;whiteSpace=wrap;html=1;fillColor=#ffe6cc;strokeColor=#d79b00;" vertex="1" parent="1">
          <mxGeometry x="900" y="260" width="90" height="60" as="geometry" />
        </mxCell>
        <mxCell id="Ieq8klNrTCmySYKByaQ4-37" value="tanév" style="ellipse;whiteSpace=wrap;html=1;fillColor=#ffe6cc;strokeColor=#d79b00;" vertex="1" parent="1">
          <mxGeometry x="115" y="10" width="90" height="60" as="geometry" />
        </mxCell>
        <mxCell id="Ieq8klNrTCmySYKByaQ4-38" value="félév" style="ellipse;whiteSpace=wrap;html=1;fillColor=#ffe6cc;strokeColor=#d79b00;" vertex="1" parent="1">
          <mxGeometry x="545" y="10" width="90" height="60" as="geometry" />
        </mxCell>
        <mxCell id="Ieq8klNrTCmySYKByaQ4-39" value="" style="endArrow=none;html=1;rounded=0;exitX=0.5;exitY=0;exitDx=0;exitDy=0;entryX=0.5;entryY=1;entryDx=0;entryDy=0;" edge="1" parent="1" source="Ieq8klNrTCmySYKByaQ4-23" target="Ieq8klNrTCmySYKByaQ4-38">
          <mxGeometry width="50" height="50" relative="1" as="geometry">
            <mxPoint x="545" y="120" as="sourcePoint" />
            <mxPoint x="595" y="70" as="targetPoint" />
          </mxGeometry>
        </mxCell>
        <mxCell id="Ieq8klNrTCmySYKByaQ4-40" value="" style="endArrow=none;html=1;rounded=0;entryX=0.113;entryY=1.014;entryDx=0;entryDy=0;entryPerimeter=0;" edge="1" parent="1" target="Ieq8klNrTCmySYKByaQ4-24">
          <mxGeometry width="50" height="50" relative="1" as="geometry">
            <mxPoint x="720" y="260" as="sourcePoint" />
            <mxPoint x="770" y="210" as="targetPoint" />
          </mxGeometry>
        </mxCell>
        <mxCell id="Ieq8klNrTCmySYKByaQ4-41" value="" style="endArrow=none;html=1;rounded=0;entryX=0.55;entryY=1.029;entryDx=0;entryDy=0;entryPerimeter=0;" edge="1" parent="1" target="Ieq8klNrTCmySYKByaQ4-24">
          <mxGeometry width="50" height="50" relative="1" as="geometry">
            <mxPoint x="830" y="260" as="sourcePoint" />
            <mxPoint x="880" y="210" as="targetPoint" />
          </mxGeometry>
        </mxCell>
        <mxCell id="Ieq8klNrTCmySYKByaQ4-42" value="" style="endArrow=none;html=1;rounded=0;entryX=0.875;entryY=1;entryDx=0;entryDy=0;entryPerimeter=0;" edge="1" parent="1" target="Ieq8klNrTCmySYKByaQ4-24">
          <mxGeometry width="50" height="50" relative="1" as="geometry">
            <mxPoint x="930" y="260" as="sourcePoint" />
            <mxPoint x="980" y="210" as="targetPoint" />
          </mxGeometry>
        </mxCell>
        <mxCell id="Ieq8klNrTCmySYKByaQ4-43" value="" style="endArrow=none;html=1;rounded=0;entryX=1.013;entryY=0.9;entryDx=0;entryDy=0;entryPerimeter=0;" edge="1" parent="1" target="Ieq8klNrTCmySYKByaQ4-24">
          <mxGeometry width="50" height="50" relative="1" as="geometry">
            <mxPoint x="1040" y="260" as="sourcePoint" />
            <mxPoint x="1090" y="210" as="targetPoint" />
          </mxGeometry>
        </mxCell>
      </root>
    </mxGraphModel>
  </diagram>
</mxfile>
